<?xml version="1.0" standalone="no"?>
<!DOCTYPE svg PUBLIC "-//W3C//DTD SVG 20010904//EN"
 "http://www.w3.org/TR/2001/REC-SVG-20010904/DTD/svg10.dtd">
<svg version="1.0" xmlns="http://www.w3.org/2000/svg"
 width="500.000000pt" height="500.000000pt" viewBox="0 0 500.000000 500.000000"
 preserveAspectRatio="xMidYMid meet">
<metadata>
Created by potrace 1.11, written by Peter Selinger 2001-2013
</metadata>
<g transform="translate(0.000000,500.000000) scale(0.100000,-0.100000)"
fill="#000000" stroke="none">
<path d="M2175 4130 c-3 -5 -7 -30 -8 -55 -1 -25 -6 -45 -11 -45 -4 0 -3 -6 3
-14 7 -8 8 -17 3 -20 -4 -3 -9 -29 -11 -58 -1 -29 -8 -59 -14 -67 -9 -12 -9
-13 1 -7 6 4 12 2 12 -3 0 -6 -4 -11 -9 -11 -4 0 -8 -40 -9 -90 -1 -161 -1
-160 -17 -160 -8 0 -15 -5 -15 -11 0 -5 -4 -8 -9 -4 -5 3 -17 -2 -25 -11 -9
-8 -16 -13 -16 -9 0 4 -7 0 -15 -9 -15 -14 -17 -86 -3 -86 3 0 4 -8 1 -18 -4
-17 -78 -58 -96 -54 -5 2 -6 -1 -4 -5 5 -9 -18 -34 -25 -27 -5 4 -103 -90
-151 -144 -15 -18 -24 -32 -20 -32 5 0 3 -4 -2 -8 -16 -11 -65 -87 -65 -100 0
-7 -4 -12 -10 -12 -5 0 -10 -8 -10 -18 0 -10 -5 -23 -10 -28 -6 -6 -13 -24
-16 -40 -3 -16 -9 -31 -13 -34 -10 -6 -25 -67 -24 -92 0 -10 -4 -15 -8 -12 -5
3 -9 -11 -9 -30 0 -20 -4 -36 -9 -36 -4 0 -9 -23 -10 -50 0 -28 -4 -58 -9 -68
-4 -9 -8 -47 -7 -84 0 -37 -3 -64 -7 -62 -4 3 -8 0 -8 -5 0 -6 6 -11 13 -11 8
0 8 -3 -2 -9 -9 -6 -11 -15 -6 -27 12 -29 14 -45 4 -38 -12 7 -11 -3 2 -28 8
-15 8 -19 0 -13 -8 4 -10 -2 -5 -22 3 -15 7 -55 9 -88 3 -58 12 -144 20 -195
2 -14 6 -45 9 -69 3 -24 9 -47 13 -50 4 -3 8 -17 8 -31 0 -14 2 -29 5 -35 2
-5 6 -18 7 -28 2 -10 9 -28 15 -40 7 -12 11 -26 10 -31 -2 -4 2 -14 7 -20 6
-7 9 -22 6 -34 -2 -12 0 -22 6 -22 5 0 9 -6 9 -13 0 -8 8 -29 17 -48 10 -19
18 -40 19 -48 2 -8 7 -17 11 -20 5 -3 15 -25 23 -48 7 -24 17 -43 22 -43 4 0
8 -7 8 -15 0 -8 5 -15 10 -15 6 0 10 -9 10 -21 0 -11 4 -18 9 -15 5 4 12 -7
16 -24 4 -17 10 -28 15 -25 4 3 11 -3 14 -13 9 -25 36 -68 36 -58 0 5 9 -3 20
-17 11 -14 20 -30 20 -37 0 -6 4 -9 8 -6 13 8 44 -34 38 -50 -3 -8 -9 -13 -13
-13 -15 4 -43 -13 -37 -22 3 -5 2 -9 -3 -8 -28 7 -93 -73 -93 -114 0 -10 -7
-17 -15 -17 -8 0 -15 -4 -15 -9 0 -5 -8 -8 -17 -6 -10 1 -27 -2 -38 -8 -23
-13 -20 -12 -62 -22 -18 -4 -30 -11 -27 -16 3 -5 -3 -9 -13 -9 -10 0 -33 -9
-50 -20 -18 -11 -33 -17 -33 -14 0 2 -6 -1 -14 -8 -8 -7 -11 -17 -8 -23 3 -5
2 -7 -3 -3 -4 4 -14 3 -20 -2 -12 -10 -75 15 -83 33 -2 4 -10 7 -18 7 -8 0
-14 4 -14 9 0 10 -45 25 -72 24 -10 0 -15 3 -13 7 5 8 -64 21 -131 25 -23 1
-47 6 -54 10 -9 6 -11 4 -5 -4 6 -10 3 -11 -14 -2 -11 7 -21 8 -21 4 0 -5 -12
-8 -27 -7 -16 1 -34 -4 -42 -10 -12 -9 -13 -8 -6 3 6 11 4 13 -11 7 -26 -11
-44 -14 -77 -15 -16 -1 -26 -5 -22 -11 3 -5 -2 -10 -12 -11 -32 -1 -67 -9 -73
-17 -3 -4 -14 -9 -25 -10 -11 -2 -23 -8 -26 -13 -3 -5 -16 -12 -30 -14 -13 -3
-25 -9 -27 -15 -2 -5 -10 -10 -18 -10 -8 0 -14 -5 -14 -11 0 -6 -7 -8 -16 -5
-8 3 -12 2 -9 -4 3 -6 1 -10 -6 -10 -6 0 -20 -10 -30 -22 -11 -11 -19 -18 -19
-14 0 4 -17 -10 -37 -31 -21 -21 -42 -37 -46 -35 -5 1 -6 -1 -3 -6 3 -5 -3
-18 -12 -28 -10 -10 -27 -34 -37 -51 -11 -18 -23 -33 -27 -33 -4 0 -8 -4 -8
-10 0 -5 -11 -33 -24 -62 -27 -60 -38 -87 -42 -106 -1 -8 -6 -21 -10 -30 -14
-33 -19 -79 -18 -197 1 -127 4 -154 22 -197 l12 -28 2330 0 2330 0 0 449 0
450 -35 26 c-19 15 -39 24 -46 19 -8 -4 -9 -3 -5 4 4 7 1 12 -8 12 -9 0 -16 5
-16 10 0 6 -9 10 -20 10 -11 0 -20 4 -20 10 0 5 -7 7 -15 4 -8 -4 -17 1 -21
10 -3 9 -10 14 -15 11 -4 -3 -16 -2 -26 3 -58 30 -100 41 -175 45 -16 1 -28 5
-28 9 0 5 -5 8 -11 8 -5 0 -7 -6 -3 -12 6 -10 4 -10 -7 -2 -18 15 -181 14
-191 0 -5 -7 -8 -7 -8 1 0 9 -7 10 -25 3 -14 -5 -31 -7 -39 -4 -8 3 -17 1 -21
-5 -3 -6 -17 -11 -30 -11 -13 0 -27 -4 -30 -10 -3 -5 -17 -10 -31 -10 -13 0
-24 -5 -24 -11 0 -5 -4 -8 -9 -4 -5 3 -15 -1 -23 -8 -7 -8 -21 -13 -31 -11 -9
1 -15 -2 -11 -7 3 -5 -2 -9 -10 -9 -9 0 -16 -4 -16 -8 0 -8 -60 -36 -72 -33
-5 0 -8 -7 -8 -16 0 -9 -3 -14 -6 -11 -8 9 -124 -95 -124 -111 0 -4 -7 -8 -15
-8 -8 0 -12 4 -9 8 2 4 0 10 -5 13 -5 3 -7 15 -4 25 3 10 0 22 -6 25 -6 4 -11
16 -11 27 0 10 -5 19 -12 19 -6 0 -9 3 -5 6 9 10 -35 86 -69 121 -18 17 -35
29 -38 25 -4 -3 -13 3 -22 14 -8 10 -13 12 -9 4 4 -9 0 -7 -9 4 -8 10 -20 15
-25 11 -6 -3 -14 0 -17 9 -3 8 -12 12 -20 9 -8 -3 -20 -1 -27 5 -13 11 -53 20
-132 31 -27 3 -50 11 -51 16 -2 23 -24 65 -34 65 -6 0 -9 4 -6 9 5 8 -13 20
-29 21 -3 0 -15 8 -26 19 -11 10 -37 22 -57 26 -21 4 -42 11 -48 16 -6 5 -32
10 -57 11 -26 2 -47 5 -47 8 0 3 -9 6 -20 7 -11 1 -18 -2 -15 -8 9 -14 -1 -11
-14 5 -8 10 -4 20 19 44 17 18 30 36 30 42 0 5 9 19 20 30 11 11 23 34 27 50
3 16 9 27 14 24 5 -3 9 4 9 15 0 12 4 21 10 21 5 0 7 7 4 15 -4 8 -1 15 6 15
6 0 8 4 5 10 -3 5 -2 10 4 10 5 0 8 9 6 20 -2 11 0 20 4 20 9 0 19 47 24 112
1 20 6 40 11 45 5 5 6 2 1 -6 -6 -10 -4 -12 4 -7 8 5 9 12 2 20 -5 6 -7 17 -3
23 4 6 7 64 6 130 -1 92 -4 117 -14 115 -10 -2 -11 1 -3 10 5 7 8 25 7 41 -2
17 1 25 8 21 5 -4 4 4 -4 17 -11 18 -14 62 -14 176 1 84 -1 153 -4 153 -3 0
-6 9 -7 20 -1 12 3 18 9 14 7 -4 7 0 -1 13 -5 11 -11 55 -12 97 -1 42 -5 76
-9 76 -3 0 -7 12 -7 28 -1 51 -7 92 -13 92 -3 0 -7 10 -8 23 -3 50 -13 91 -23
98 -6 3 -10 15 -8 25 3 22 -7 48 -63 167 -23 48 -46 87 -51 87 -6 0 -8 3 -4 6
3 3 -3 15 -14 27 -10 11 -19 27 -19 34 0 7 -8 13 -17 13 -15 0 -16 2 -3 10 11
7 11 10 2 10 -7 0 -25 14 -39 30 -13 17 -31 30 -39 30 -9 0 -12 5 -9 10 3 6 1
10 -4 10 -6 0 -20 8 -31 18 -11 9 -22 15 -23 12 -1 -3 -17 5 -34 18 -18 13
-37 20 -43 17 -6 -3 -13 0 -16 9 -3 8 -14 13 -25 11 -10 -2 -19 0 -19 4 0 8
-5 9 -60 13 -36 2 -61 17 -53 31 2 4 -1 7 -6 7 -6 0 -11 7 -11 15 0 9 -12 18
-30 21 -16 4 -27 10 -24 15 3 5 -7 4 -23 -2 -19 -7 -29 -7 -31 0 -2 6 -7 9
-11 7 -3 -2 -11 7 -18 20 -6 13 -7 22 -2 19 4 -3 2 7 -6 22 -8 15 -18 43 -21
60 -3 18 -11 30 -16 27 -5 -4 -9 4 -7 17 1 13 -4 38 -11 54 -37 87 -47 117
-49 146 0 11 -5 17 -11 14 -6 -4 -10 5 -10 19 0 14 -4 26 -10 26 -5 0 -9 3 -8
8 3 7 -40 82 -47 82 -2 0 -6 -4 -10 -10z"/>
</g>
</svg>
